<svg xmlns="http://www.w3.org/2000/svg" xmlns:xlink="http://www.w3.org/1999/xlink" width="16" height="16" viewBox="0 0 16 16" fill="none"><path   fill-rule="evenodd"  fill="#E5E5E5"  d="M9.80701 2.39987C9.69055 2.3447 9.55667 2.36812 9.45701 2.44987L5.927 5.32988L3.33699 5.32988C2.96879 5.32988 2.66699 5.63166 2.66699 5.99988L2.66699 9.99989C2.66699 10.3681 2.96879 10.6699 3.33699 10.6699L5.927 10.6699L9.45701 13.5499C9.55667 13.6316 9.69055 13.6551 9.80701 13.5999C9.92353 13.5447 9.99701 13.4287 9.99701 13.2999L9.99701 2.69987C9.99701 2.57105 9.92353 2.45505 9.80701 2.39987ZM12.3731 4.77928C13.3972 5.53266 14.0031 6.72788 14.0031 7.99928C14.0031 9.22729 13.4444 10.3253 12.5731 11.0593L11.6231 10.1093C12.2791 9.60483 12.6631 8.82673 12.6631 7.99928C12.6631 7.0459 12.1665 6.21057 11.4131 5.73928L12.3731 4.77928ZM8.67001 11.1832L8.67001 4.81318L6.4 6.66318L3.99999 6.66318L3.99999 9.33319L6.4 9.33319L8.67001 11.1832Z"></path></svg>