<svg xmlns="http://www.w3.org/2000/svg" xmlns:xlink="http://www.w3.org/1999/xlink" width="16" height="16" viewBox="0 0 16 16" fill="none"><path   fill-rule="evenodd"  fill="#E5E5E5"  d="M8.66327 1.33337L8.66327 8.00339L7.33326 8.00339L7.33326 1.33337L8.66327 1.33337ZM8.00326 14.668C4.32126 14.668 1.33325 11.68 1.33325 7.99799C1.33325 5.8221 2.39006 3.78468 4.17326 2.53798L4.94326 3.62798C3.03632 4.96298 2.21339 7.38784 2.91325 9.60799C3.61312 11.828 5.67553 13.338 8.00326 13.338C10.331 13.338 12.3834 11.828 13.0833 9.60799C13.7831 7.38784 12.9702 4.96298 11.0633 3.62798L11.8233 2.53798C13.6065 3.78468 14.6633 5.8221 14.6633 7.99799C14.6633 11.68 11.6853 14.668 8.00326 14.668Z"></path></svg>