<svg xmlns="http://www.w3.org/2000/svg" xmlns:xlink="http://www.w3.org/1999/xlink" width="16" height="16" viewBox="0 0 16 16" fill="none"><circle cx="8" cy="8" r="3"   fill="#E5E5E5" ></circle><path d="M8.83662 1.66663L7.16662 1.66663L6.99662 1.83663L6.99662 3.49663C6.99662 3.58909 7.16662 3.66663 7.16662 3.66663L8.83662 3.66663C8.83662 3.66663 8.99662 3.58909 8.99662 3.49663L8.99662 1.83663L8.83662 1.66663ZM4.34663 2.93663C4.28076 2.87203 4.17123 2.87203 4.10663 2.93663L2.93663 4.10663C2.87203 4.17123 2.87203 4.28076 2.93663 4.34663L4.10663 5.52662C4.17123 5.59249 4.28076 5.59249 4.34663 5.52662L5.52662 4.34663C5.59249 4.28076 5.59249 4.17123 5.52662 4.10663L4.34663 2.93663ZM11.8866 2.93663C11.822 2.87203 11.7225 2.87203 11.6566 2.93663L10.4766 4.10663C10.412 4.17123 10.412 4.28076 10.4766 4.34663L11.6566 5.52662C11.7225 5.59249 11.822 5.59249 11.8866 5.52662L13.0666 4.34663C13.1312 4.28076 13.1312 4.17123 13.0666 4.10663L11.8866 2.93663ZM3.49663 6.99662L1.83663 6.99662L1.66663 7.16662L1.66663 8.83662L1.83663 8.99662L3.49663 8.99662C3.58909 8.99662 3.66663 8.83662 3.66663 8.83662L3.66663 7.16662C3.66663 7.16662 3.58909 6.99662 3.49663 6.99662ZM14.1666 6.99662L12.4966 6.99662C12.4042 6.99662 12.3366 7.16662 12.3366 7.16662L12.3366 8.83662C12.3366 8.83662 12.4042 8.99662 12.4966 8.99662L14.1666 8.99662L14.3366 8.83662L14.3366 7.16662L14.1666 6.99662ZM4.34663 10.4766C4.28076 10.4108 4.17123 10.4108 4.10663 10.4766L2.93663 11.6566C2.87203 11.7225 2.87203 11.822 2.93663 11.8866L4.10663 13.0666C4.17123 13.1312 4.28076 13.1312 4.34663 13.0666L5.52662 11.8866C5.59249 11.822 5.59249 11.7225 5.52662 11.6566L4.34663 10.4766ZM11.8866 10.4766C11.822 10.4108 11.7225 10.4108 11.6566 10.4766L10.4766 11.6566C10.4108 11.7225 10.4108 11.822 10.4766 11.8866L11.6566 13.0666C11.7225 13.1312 11.822 13.1312 11.8866 13.0666L13.0666 11.8866C13.1312 11.822 13.1312 11.7225 13.0666 11.6566L11.8866 10.4766ZM8.83662 12.3366L7.16662 12.3366C7.16662 12.3366 6.99662 12.4042 6.99662 12.4966L6.99662 14.1666L7.16662 14.3366L8.83662 14.3366L8.99662 14.1666L8.99662 12.4966C8.99662 12.4042 8.83662 12.3366 8.83662 12.3366Z" fill-rule="evenodd"  fill="#E5E5E5" ></path></svg>