<svg xmlns="http://www.w3.org/2000/svg" xmlns:xlink="http://www.w3.org/1999/xlink" width="16" height="16" viewBox="0 0 16 16" fill="none"><path   fill-rule="evenodd"  fill="#E5E5E5"  d="M5.96203 12.9315C6.47137 13.1422 6.71873 13.7814 6.63204 14.5215C7.53748 14.7131 8.46659 14.7131 9.37204 14.5215C9.28468 13.7814 9.53203 13.1428 10.042 12.9315C10.552 12.7201 11.1807 12.9968 11.642 13.5815C12.4177 13.0768 13.0774 12.4171 13.582 11.6415C12.9967 11.1795 12.7206 10.5515 12.932 10.0414C13.1428 9.53211 13.782 9.28476 14.522 9.37145C14.7137 8.46601 14.7137 7.53689 14.522 6.63145C13.782 6.7188 13.1434 6.47145 12.932 5.96145C12.7206 5.45144 12.9973 4.82277 13.582 4.36145C13.0774 3.58577 12.4177 2.91611 11.642 2.41144C11.18 2.9968 10.552 3.28283 10.042 3.07144C9.5327 2.86072 9.28535 2.21151 9.37204 1.47144C8.46659 1.27979 7.53748 1.27979 6.63204 1.47144C6.71939 2.21151 6.47204 2.86005 5.96203 3.07144C5.45203 3.28283 4.82336 2.99613 4.36203 2.41144C3.58636 2.91611 2.9167 3.58577 2.41203 4.36145C2.99739 4.82344 3.28342 5.45144 3.07203 5.96145C2.86131 6.47078 2.2121 6.71814 1.47203 6.63145C1.28038 7.53689 1.28038 8.46601 1.47203 9.37145C2.2121 9.28409 2.86064 9.53144 3.07203 10.0414C3.28342 10.5515 2.99672 11.1801 2.41203 11.6415C2.9167 12.4171 3.58636 13.0768 4.36203 13.5815C4.82402 12.9961 5.45203 12.7201 5.96203 12.9315ZM11.694 9.53475C11.994 8.81214 12.6008 8.34813 13.334 8.14475L13.334 7.86475C12.6008 7.66147 11.994 7.18746 11.694 6.46475C11.3947 5.7415 11.4993 4.9861 11.874 4.32475C11.8098 4.25699 11.7418 4.19898 11.674 4.13474C11.012 4.50939 10.2573 4.60341 9.53404 4.30474C8.81131 4.0048 8.34742 3.39813 8.14404 2.66474L7.86404 2.66474C7.66065 3.39813 7.18676 4.0048 6.46404 4.30474C5.74078 4.60405 4.9854 4.50939 4.32403 4.13474C4.25606 4.19877 4.19806 4.25667 4.13403 4.32475C4.50879 4.98674 4.60271 5.7415 4.30403 6.46475C4.00408 7.18746 3.39732 7.66147 2.66403 7.86475L2.66403 8.14475C3.39732 8.34813 4.00408 8.81214 4.30403 9.53475C4.60335 10.2581 4.50879 11.0134 4.13403 11.6748C4.19806 11.7427 4.25606 11.8108 4.32403 11.8748C4.98604 11.5001 5.74078 11.3961 6.46404 11.6947C7.18676 11.9947 7.66065 12.6015 7.86404 13.3348L8.14404 13.3348C8.34742 12.6015 8.81131 11.9947 9.53404 11.6947C10.2573 11.3953 11.0127 11.5001 11.674 11.8748C11.742 11.8108 11.81 11.7427 11.874 11.6748C11.4993 11.0128 11.3954 10.2581 11.694 9.53475ZM10 7.99995C10 6.89539 9.1046 5.99995 8.00004 5.99995C6.89548 5.99995 6.00003 6.89539 6.00003 7.99995C6.00003 9.10451 6.89548 9.99995 8.00004 9.99995C9.1046 9.99995 10 9.10451 10 7.99995ZM8.66394 8.00325C8.66394 7.63505 8.37214 7.33325 8.00394 7.33325C7.63574 7.33325 7.33394 7.63505 7.33394 8.00325C7.33394 8.37145 7.63574 8.66325 8.00394 8.66325C8.37214 8.66325 8.66394 8.37145 8.66394 8.00325Z"></path></svg>