<svg xmlns="http://www.w3.org/2000/svg" xmlns:xlink="http://www.w3.org/1999/xlink" width="37.3154296875" height="37.315673828125" viewBox="0 0 37.3154296875 37.315673828125" fill="none"><g filter="url(#filter_9_399)"><path     fill="#E5E5E5"  d="M25.3816 5.95055C27.8341 7.2483 29.8696 9.23446 31.2272 11.6801C32.8415 14.5882 33.3975 17.966 32.8005 21.2381C32.2035 24.5101 30.4905 27.4739 27.9532 29.6245C25.416 31.7751 22.2115 32.9794 18.8859 33.0323C15.5602 33.0851 12.3191 31.9832 9.71487 29.9142C7.11061 27.8453 5.30428 24.9374 4.60367 21.6859C3.90306 18.4345 4.35152 15.0407 5.87263 12.0828C7.15037 9.59825 9.11856 7.55036 11.5248 6.17541C12.2831 5.74209 13.227 6.11433 13.574 6.91583L13.574 6.91583C13.921 7.71732 13.5467 8.63825 12.8019 9.09432C11.0578 10.1622 9.62975 11.6928 8.68532 13.5293C7.49885 15.8364 7.14905 18.4836 7.69552 21.0197C8.242 23.5558 9.65093 25.824 11.6823 27.4378C13.7136 29.0515 16.2416 29.911 18.8356 29.8698C21.4296 29.8286 23.9291 28.8893 25.9082 27.2118C27.8872 25.5344 29.2234 23.2226 29.6891 20.6704C30.1547 18.1182 29.721 15.4835 28.4619 13.2152C27.4609 11.4119 25.9874 9.9289 24.2132 8.917C23.4546 8.48429 23.0443 7.57242 23.3657 6.7603L23.3657 6.7603C23.687 5.9482 24.6096 5.54206 25.3816 5.95055Z"></path></g><g filter="url(#filter_9_400)"><rect  x="16.5146484375" y="0.81103515625" width="3.833740234375" height="15.3348388671875" rx="1.9168701171875"    fill="#E5E5E5" ></rect></g><defs><filter id="filter_9_399" x="4.28125" y="5.789794921875" width="28.7529296875" height="27.244140625" filterUnits="userSpaceOnUse" color-interpolation-filters="sRGB"><feFlood flood-opacity="0" result="feFloodId_9_399"/><feBlend mode="normal" in="SourceGraphic" in2="feFloodId_9_399" result="shape_9_399"/><feColorMatrix in="SourceAlpha" type="matrix" values="0 0 0 0 0 0 0 0 0 0 0 0 0 0 0 0 0 0 127 0" result="hardAlpha_9_399"/><feOffset dx="0" dy="2"/><feGaussianBlur stdDeviation="2"/><feComposite in2="hardAlpha_9_399" operator="arithmetic" k2="-1" k3="1"/><feColorMatrix type="matrix" values="0 0 0 0 0 0 0 0 0 0 0 0 0 0 0 0 0 0 0.25 0"/><feBlend mode="normal" in2="shape_9_399" result="innerShadow_0_9_399" /></filter><filter id="filter_9_400" x="16.5146484375" y="0.81103515625" width="3.833984375" height="15.3349609375" filterUnits="userSpaceOnUse" color-interpolation-filters="sRGB"><feFlood flood-opacity="0" result="feFloodId_9_400"/><feBlend mode="normal" in="SourceGraphic" in2="feFloodId_9_400" result="shape_9_400"/><feColorMatrix in="SourceAlpha" type="matrix" values="0 0 0 0 0 0 0 0 0 0 0 0 0 0 0 0 0 0 127 0" result="hardAlpha_9_400"/><feOffset dx="0" dy="2"/><feGaussianBlur stdDeviation="2"/><feComposite in2="hardAlpha_9_400" operator="arithmetic" k2="-1" k3="1"/><feColorMatrix type="matrix" values="0 0 0 0 0 0 0 0 0 0 0 0 0 0 0 0 0 0 0.25 0"/><feBlend mode="normal" in2="shape_9_400" result="innerShadow_0_9_400" /></filter></defs></svg>